<?xml version="1.0" encoding="UTF-8"?>
<svg width="22px" height="21px" viewBox="0 0 22 21" version="1.1" xmlns="http://www.w3.org/2000/svg" xmlns:xlink="http://www.w3.org/1999/xlink">
    <g id="Page-1" stroke="none" stroke-width="1" fill="none" fill-rule="evenodd">
        <g id="S_Behance_24_N@1x" fill="#000000" fill-rule="nonzero">
            <path d="M0,1 L0,20 C0,20.5522847 0.44771525,21 1,21 L21,21 C21.5522847,21 22,20.5522847 22,20 L22,1 C22,0.44771525 21.5522847,0 21,0 L1,0 C0.44771525,0 0,0.44771525 0,1 Z M20,19 L2,19 L2,2 L20,2 L20,19 Z" id="Shape"></path>
            <path d="M14.663,7.6 C12.836,7.6 11.796,9.239 11.796,11.243 C11.796,13.093 12.639,14.743 14.887,14.743 C15.4729498,14.7695178 16.0570287,14.6592754 16.593,14.421 C16.6497953,14.3847365 16.6820664,14.3201944 16.677,14.253 L16.677,13.194 C16.677,13.124 16.635,13.11 16.577,13.138 C16.1412941,13.3270269 15.6698273,13.419478 15.195,13.409 C14.6770257,13.4611931 14.163692,13.2731743 13.8019662,12.8987735 C13.4402404,12.5243727 13.2700056,12.0048705 13.34,11.489 L15.56,11.489 C16.0337802,11.4978899 16.5076613,11.4778527 16.979,11.429 C17.0389766,11.4246826 17.0866826,11.3769766 17.091,11.317 C17.1466842,11.0203973 17.1701537,10.7186457 17.161,10.417 C17.2395781,9.70399143 17.0128858,8.99101436 16.5369597,8.45431141 C16.0610335,7.91760846 15.3802886,7.60726659 14.663,7.6 Z M15.703,10.3 C15.4928985,10.3190628 15.2817396,10.3237403 15.071,10.314 L13.356,10.314 C13.44,9.557 13.792,8.843 14.606,8.843 C14.9286876,8.86015804 15.2301892,9.00901055 15.4400208,9.25475919 C15.6498523,9.50050782 15.7496198,9.82161026 15.716,10.143 C15.717,10.2 15.7,10.251 15.7,10.308 L15.703,10.3 Z" id="Shape"></path>
            <path d="M9.5,9.7 C10.0673643,9.23959277 10.3851688,8.53916366 10.358,7.809 C10.358,6.909 9.929,5.209 7.369,5.209 C6.525,5.209 5.478,5.238 5.093,5.253 C5.035,5.268 5.02,5.289 5.02,5.362 L5,14.553 C4.99902834,14.6079607 5.03949338,14.6548829 5.094,14.662 C5.538,14.677 6.352,14.662 7.269,14.662 C9.393,14.677 10.775,13.636 10.775,11.898 C10.8281452,10.9762029 10.3265577,10.1115054 9.5,9.7 Z M6.4,6.567 C6.618,6.552 7.04,6.531 7.367,6.531 C7.77540904,6.49287812 8.18008313,6.63513574 8.47479911,6.92043158 C8.76951509,7.20572742 8.92483908,7.60556839 8.9,8.015 C8.9201723,8.47879355 8.7271522,8.92634969 8.376,9.23 C8.02664321,9.18346277 7.67442767,9.1617417 7.322,9.165 L6.384,9.172 L6.4,6.567 Z M7.265,13.389 C6.96,13.389 6.625,13.389 6.378,13.374 L6.378,10.487 L7.403,10.472 C7.67887633,10.4706214 7.95346388,10.5097038 8.218,10.588 C8.83026596,10.734662 9.250747,11.2972656 9.218,11.926 C9.226,12.975 8.36,13.389 7.269,13.389 L7.265,13.389 Z" id="Shape"></path>
        </g>
    </g>
</svg>